<?xml version="1.0" standalone="no"?>
<!DOCTYPE svg PUBLIC "-//W3C//DTD SVG 20010904//EN"
 "http://www.w3.org/TR/2001/REC-SVG-20010904/DTD/svg10.dtd">
<svg version="1.0" xmlns="http://www.w3.org/2000/svg"
 width="763.000000pt" height="480.000000pt" viewBox="0 0 763.000000 480.000000"
 preserveAspectRatio="xMidYMid meet">

<g transform="translate(0.000000,480.000000) scale(0.100000,-0.100000)"
fill="#000000" stroke="none">
<path d="M4070 4535 c0 -3 12 -29 26 -58 33 -64 64 -153 64 -182 0 -11 -6 -29
-13 -39 -20 -27 -50 -13 -77 37 -41 75 -69 107 -95 107 -13 0 -27 -4 -30 -10
-12 -19 -35 -10 -50 20 -20 39 -50 39 -105 -1 -71 -51 -105 -61 -210 -60 -86
0 -237 29 -345 66 -46 15 72 -51 250 -141 134 -68 204 -98 238 -101 68 -8 60
-32 -17 -50 -32 -7 -89 -30 -125 -50 -175 -96 -177 -97 -282 -101 -54 -3 -128
1 -165 7 -36 7 -68 10 -70 8 -6 -6 96 -42 176 -63 36 -10 101 -18 145 -18 72
0 88 4 158 37 72 35 137 56 137 44 0 -2 -39 -33 -87 -68 -161 -116 -285 -261
-334 -387 -27 -72 -36 -195 -19 -271 24 -110 93 -212 201 -298 118 -94 239
-137 367 -131 l67 3 -35 16 c-123 57 -237 210 -275 371 -19 81 -19 206 1 288
26 113 125 290 161 290 8 0 23 -5 34 -11 20 -10 20 -12 4 -30 -16 -17 -17 -20
-1 -44 28 -43 50 -32 70 35 22 74 36 85 36 30 0 -58 25 -106 90 -170 41 -42
73 -62 125 -83 39 -15 78 -27 86 -27 31 0 140 -62 151 -86 6 -13 17 -24 25
-24 11 0 10 6 -4 30 -29 50 -63 76 -163 127 -52 26 -96 53 -98 60 -5 19 43 26
84 13 44 -15 110 -73 170 -152 30 -38 55 -60 80 -68 76 -25 104 7 104 122 0
64 -3 73 -30 105 -29 33 -42 93 -20 93 19 0 10 21 -51 126 -52 88 -60 108 -54
135 5 20 1 44 -8 68 -9 20 -23 70 -32 111 -19 94 -80 207 -158 294 -52 59 -97
96 -97 81z m13 -676 c50 -33 59 -44 27 -34 -15 5 -20 2 -20 -14 0 -11 -5 -23
-10 -26 -30 -19 -130 38 -130 73 0 11 13 4 41 -23 34 -33 40 -36 34 -17 -4 16
-2 24 11 29 14 5 14 8 -7 24 -42 32 3 22 54 -12z" fill="white"/>
<path d="M5880 3965 c7 -8 28 -17 49 -21 171 -29 425 -111 591 -190 588 -281
786 -729 584 -1323 -37 -109 -98 -244 -157 -348 -20 -34 -38 -72 -42 -85 -4
-13 -20 -60 -37 -106 -16 -46 -28 -85 -26 -88 5 -5 127 162 182 249 53 85 131
244 171 350 79 210 103 434 67 609 -80 383 -406 671 -972 858 -144 48 -373
110 -406 110 -13 0 -14 -3 -4 -15z" fill="white"/>
<path d="M1554 3884 c-470 -111 -825 -283 -1044 -504 -112 -113 -175 -213
-221 -350 -30 -87 -33 -108 -37 -246 -5 -167 7 -243 59 -406 43 -133 144 -334
238 -473 85 -126 148 -205 136 -170 -4 11 -22 61 -40 112 -18 50 -56 138 -86
195 -254 490 -283 846 -95 1182 49 87 192 236 302 315 105 74 310 176 454 226
105 36 368 105 402 105 9 0 22 9 28 20 6 11 9 20 8 19 -2 0 -48 -11 -104 -25z" fill="white"/>
<path d="M5681 3876 c2 -2 42 -19 89 -36 94 -36 169 -82 215 -131 36 -38 34
-37 -75 23 -169 93 -326 126 -449 94 -64 -16 -86 -27 -248 -121 l-83 -47 1
-48 c5 -207 -366 -469 -665 -470 l-71 0 93 -45 c184 -88 320 -202 357 -299
l17 -45 59 49 c100 83 145 105 214 104 84 -1 207 -59 299 -143 l28 -26 -30 55
c-17 30 -34 74 -38 97 -6 38 -3 45 24 73 68 67 198 26 447 -140 39 -26 81 -53
94 -59 27 -15 28 -16 -31 70 -20 30 -54 91 -75 135 -34 71 -38 87 -38 157 0
76 1 80 32 107 51 45 97 53 288 47 190 -6 260 -21 393 -84 110 -52 224 -168
280 -284 67 -140 99 -305 89 -473 l-5 -101 30 65 c83 182 101 461 41 638 -111
330 -432 613 -878 774 -105 38 -256 68 -341 68 -37 0 -65 -2 -63 -4z" fill="white"/>
<path d="M5270 3814 c-63 -24 -151 -56 -195 -71 -44 -14 -82 -28 -84 -30 -3
-2 4 -10 15 -18 18 -14 18 -16 2 -29 -10 -7 -18 -18 -18 -24 0 -35 -58 -149
-99 -194 -117 -130 -288 -189 -553 -192 l-147 -1 52 -19 c40 -15 81 -19 177
-19 147 -1 213 14 338 75 147 72 292 230 292 319 0 26 5 39 18 44 15 6 15 8
-7 26 l-23 19 26 0 c44 0 117 29 229 92 149 84 146 87 -23 22z" fill="white"/>
<path d="M1668 3785 c-106 -20 -277 -68 -373 -105 -321 -124 -540 -301 -651
-525 -61 -125 -76 -187 -81 -345 -5 -150 15 -282 62 -403 l24 -62 0 105 c0 68
6 124 17 160 71 236 268 408 613 535 235 87 534 126 623 82 67 -34 59 -66 -49
-212 -80 -108 -173 -253 -173 -271 0 -7 40 11 91 42 121 73 232 128 310 154
51 18 80 21 144 18 130 -7 202 -60 246 -180 l21 -57 32 34 c19 20 49 38 76 45
59 16 220 7 369 -20 115 -21 291 -28 366 -15 61 11 174 45 179 54 3 5 -15 16
-40 26 -65 25 -169 127 -224 219 l-45 75 -90 1 c-120 0 -300 17 -394 36 -208
42 -298 137 -246 260 14 33 13 35 -8 44 -135 56 -464 180 -507 191 -36 9 -116
14 -227 14 -94 0 -169 3 -165 7 18 18 242 40 352 35 142 -6 196 -21 363 -98
73 -34 156 -70 185 -81 65 -24 82 -41 82 -81 0 -58 20 -105 63 -147 74 -73
132 -93 322 -110 162 -15 245 -13 245 4 0 44 -5 45 -143 39 -212 -9 -348 20
-413 88 -25 26 -29 38 -28 87 0 31 4 67 8 79 7 19 4 23 -18 29 -20 5 -25 11
-21 25 4 12 2 19 -7 19 -7 0 -89 38 -183 85 -217 108 -282 126 -480 131 -104
2 -174 -1 -227 -11z" fill="white"/>
<path d="M3704 3666 c-14 -32 -26 -69 -26 -82 0 -30 24 -58 63 -74 45 -19 58
-8 61 52 3 45 6 53 26 58 20 4 18 7 -21 28 -23 12 -50 35 -59 50 l-17 27 -27
-59z" fill="white"/>
<path d="M3660 3513 c3 -72 53 -162 111 -199 66 -41 73 -42 65 -8 -24 98 -38
133 -56 139 -11 3 -38 22 -61 41 -40 33 -59 42 -59 27z" fill="white"/>
<path d="M3694 3315 c13 -50 74 -133 131 -178 72 -56 139 -92 305 -162 233
-98 367 -182 405 -256 33 -62 11 -147 -56 -224 -17 -19 -29 -35 -27 -35 2 0
29 7 59 16 257 76 314 261 132 424 -97 86 -155 110 -588 245 -178 56 -198 66
-294 141 -70 54 -74 56 -67 29z" fill="white"/>
<path d="M1160 2030 l0 -242 143 4 c167 5 225 21 294 82 52 45 73 87 73 144 0
74 -12 105 -60 153 -71 71 -133 90 -307 97 l-143 5 0 -243z m242 200 c48 -14
97 -55 115 -98 8 -19 14 -66 14 -105 0 -135 -68 -207 -193 -207 l-58 0 0 210
0 210 43 0 c23 0 59 -5 79 -10z" fill="white"/>
<path d="M2150 2027 l0 -235 55 -4 c30 -1 60 -1 65 0 6 2 10 90 10 229 l0 226
61 -7 c34 -3 79 -6 100 -6 l39 0 0 -84 c0 -93 -5 -100 -68 -96 -53 4 -59 1
-33 -20 14 -12 38 -20 62 -20 l39 0 0 -104 c0 -116 -5 -108 78 -121 l43 -7 -3
114 -3 113 -40 9 c-63 13 -73 18 -50 23 11 3 37 9 58 14 l37 10 0 88 c0 83 -1
89 -22 96 -13 4 -114 9 -225 12 l-203 6 0 -236z" fill="white"/>
<path d="M4040 2251 l-25 -7 -3 -212 -2 -212 27 -7 c37 -10 370 -10 406 0 l27
7 0 115 0 115 -114 0 c-135 0 -185 -13 -81 -20 l70 -5 2 -80 c4 -129 7 -125
-91 -125 -47 0 -91 3 -100 6 -14 5 -16 33 -16 210 l0 204 100 0 c88 0 100 -2
101 -17 1 -10 2 -22 4 -28 1 -5 3 -15 3 -20 1 -6 29 -10 62 -10 l60 0 0 48 0
47 -202 -1 c-112 -1 -214 -4 -228 -8z" fill="white"/>
<path d="M5087 2250 c-149 -38 -232 -158 -197 -284 26 -94 118 -162 239 -175
75 -8 167 6 219 33 42 21 92 74 108 113 16 37 18 130 4 167 -16 44 -78 103
-132 126 -59 25 -180 35 -241 20z m173 -42 c50 -35 70 -68 82 -139 27 -161
-73 -284 -204 -248 -52 14 -103 63 -117 114 -31 111 4 236 76 274 53 28 121
27 163 -1z" fill="white"/>
<path d="M3218 2237 c-26 -8 -63 -24 -82 -38 l-36 -24 0 -182 0 -183 65 0 65
0 0 110 0 110 38 0 c37 1 72 18 72 37 0 5 -25 7 -55 5 l-56 -3 3 63 3 62 45
14 c36 10 56 11 98 2 29 -7 56 -18 58 -25 3 -7 6 -93 7 -192 l2 -178 63 -3 62
-3 0 182 c0 204 4 192 -80 231 -57 26 -203 34 -272 15z" fill="white"/>
<path d="M5996 2230 c-30 -9 -52 -24 -57 -36 -9 -24 -12 -365 -3 -387 5 -13
19 -17 65 -17 l59 0 0 204 c0 177 2 205 16 210 30 12 124 6 164 -10 l40 -16 2
-192 3 -191 60 0 60 0 3 192 c3 219 9 204 -93 238 -72 25 -254 28 -319 5z" fill="white"/>
<path d="M5475 1439 c-307 -22 -761 -167 -1290 -411 -377 -175 -600 -235 -910
-245 -198 -6 -297 3 -450 42 -268 68 -504 217 -651 413 -34 45 -64 87 -66 93
-3 9 -67 7 -243 -5 -132 -10 -241 -19 -243 -21 -3 -3 145 -138 248 -227 436
-374 875 -536 1355 -498 317 25 549 96 976 301 643 307 1052 444 1359 457 190
7 297 -24 379 -109 59 -62 83 -131 89 -259 12 -276 -123 -462 -403 -554 -130
-43 -256 -58 -470 -55 l-190 2 -60 -29 c-52 -25 -71 -29 -145 -28 -84 0 -128
10 -240 53 l-55 21 25 -21 c132 -112 492 -187 778 -161 233 21 398 78 551 192
306 226 396 665 185 899 -109 120 -276 168 -529 150z" fill="white"/>
</g>
</svg>
