<?xml version="1.0" encoding="UTF-8" standalone="no"?>
<svg
   xmlns:dc="http://purl.org/dc/elements/1.1/"
   xmlns:cc="http://creativecommons.org/ns#"
   xmlns:rdf="http://www.w3.org/1999/02/22-rdf-syntax-ns#"
   xmlns:svg="http://www.w3.org/2000/svg"
   xmlns="http://www.w3.org/2000/svg"
   viewBox="0 0 816 1056"
   height="1056"
   width="816"
   xml:space="preserve"
   id="svg2"
   version="1.1"><metadata
     id="metadata8"><rdf:RDF><cc:Work
         rdf:about=""><dc:format>image/svg+xml</dc:format><dc:type
           rdf:resource="http://purl.org/dc/dcmitype/StillImage" /></cc:Work></rdf:RDF></metadata><defs
     id="defs6" /><g
     transform="matrix(1.3333333,0,0,-1.3333333,0,1056)"
     id="g10"><g
       transform="scale(0.1)"
       id="g12"><path
         id="path14"
         style="fill:#29338b;fill-opacity:1;fill-rule:nonzero;stroke:none"
         d="m 2667.43,4257.72 c 63.8,-31.24 131.62,-52.87 198.69,-75.71 65.9,-22.46 132.13,-44.96 194.32,-76.61 13.73,-6.71 26.72,-14.89 40.11,-22.18 18.7,-1.78 36.31,-9.66 55.17,-10.06 3.2,0.31 5.65,-1.89 7.95,-3.78 25.68,-21.54 51.1,-43.63 79.52,-61.56 26.7,-16.97 56.19,-30.24 87.48,-35.78 30.75,-5 62.4,-6.57 92.07,-16.83 17.18,-5.87 33.16,-17.1 41.63,-33.54 11.74,-22.41 12.45,-48.54 11.61,-73.28 -13.9,6.5 -22.95,19.77 -28.49,33.63 -8.87,21.2 -12.66,44.57 -25.13,64.18 -11.34,-0.04 -22.66,-0.06 -33.98,0.03 0.23,-0.8 0.67,-2.39 0.91,-3.18 -69.86,8.84 -141.35,12.54 -208.27,36.33 -34.14,11.4 -61.84,36.65 -96.65,46.35 -22.24,6.39 -46.42,3.22 -67.12,-6.66 16.22,-10.79 37.22,0.16 54.08,-8.92 -2.57,-2.05 -5.16,-4.05 -7.71,-6.1 1.36,-1.81 2.59,-3.99 4.87,-4.84 8.85,-3.95 18.56,-5.42 27.53,-9.04 -39.33,-2.14 -79.09,4.52 -115.6,19.31 -48.29,19.34 -89.76,51.66 -129.58,84.49 -28.23,23.29 -56.29,46.96 -87.01,66.98 30.15,-6.09 58.62,-18.11 87.94,-27.04 28.4,-8.93 57.69,-15.95 87.57,-16.97 -89.78,48.55 -184.6,87.59 -271.91,140.78" /><path
         id="path16"
         style="fill:#29338b;fill-opacity:1;fill-rule:nonzero;stroke:none"
         d="m 2573.27,4246.2 c 59.91,-31.67 124.89,-53.46 181.86,-90.64 45.08,-28.85 81.87,-68.18 122.49,-102.58 22.95,-19.43 47.51,-37.54 75.19,-49.65 29.63,-13.13 61.76,-19.5 93.84,-23 42.28,-4.56 84.85,-5.02 127.17,-9.19 84.5,-7.66 163.19,-46.68 248.45,-49.25 4.23,-31.08 23.1,-56.85 39.17,-82.78 -5.25,2.34 -10.75,4.21 -16.5,4.6 -18.9,1.83 -37.83,-1.5 -56.73,-0.03 -20.13,23.36 -47.86,39.15 -77.19,47.97 -39.33,11.82 -81.09,13.09 -121.75,9.36 -66.5,-6.83 -132.17,-25.6 -191.18,-57.22 -1.11,24.25 -10.18,48.86 -28.6,65.28 -24.43,22.21 -57.86,30.45 -89.76,34.81 -64.44,7.85 -129.39,0.94 -193.88,-2.63 22.33,13.32 43.49,31 54.28,55.24 9.78,21.36 9.25,46.17 2.21,68.24 -9.73,30.83 -28.73,57.75 -49.7,81.93 -34.42,39.01 -75.36,71.95 -119.37,99.54" /><path
         id="path18"
         style="fill:#b0b5cc;fill-opacity:1;fill-rule:nonzero;stroke:none"
         d="m 3391.14,3942.95 c 1.61,1.19 6.06,1.66 6.49,-0.79 -1.67,-1.16 -6.11,-1.64 -6.49,0.79" /><path
         id="path20"
         style="fill:#231e1f;fill-opacity:1;fill-rule:nonzero;stroke:none"
         d="m 2500.76,3826.64 c 27.79,-0.04 55.58,0.03 83.39,-0.04 23.22,-0.41 46.83,-1.68 69.07,-9 -0.06,-20.63 0.09,-41.24 -0.06,-61.87 0.48,-3.41 -2.94,-5.14 -5.52,-6.37 -8.43,-3.59 -17.71,-4.41 -26.75,-5.06 10.74,-1.14 23.45,-0.89 31.83,-8.66 1.18,-24.35 0.16,-48.9 0.5,-73.34 -13.93,2.09 -27.86,4.16 -41.8,6.22 0.02,22.93 0,45.86 0,68.8 -11.28,0.39 -23.23,-1.41 -33.9,3.18 -4.73,1.93 -6.87,6.78 -8.16,11.38 14.02,0.12 28.04,0.03 42.06,0.05 0,21.87 0,43.76 0,65.64 -22.93,0 -45.88,0.01 -68.81,0 0,-51.69 0,-103.38 0,-155.09 -13.95,0.02 -27.9,0.02 -41.85,0 0,54.73 0.02,109.43 0,164.16" /><path
         id="path22"
         style="fill:#231e1f;fill-opacity:1;fill-rule:nonzero;stroke:none"
         d="m 2160,3826.44 c 38.88,0 78.75,1.59 116.25,-10.47 19.34,-6.17 38.46,-16.77 49.62,-34.31 13.29,-21.07 13.88,-49.38 1.91,-71.15 -10.25,-18.61 -29.51,-30.15 -49.12,-36.76 -38.14,-12.91 -78.96,-11.25 -118.66,-11.25 0,54.64 0,109.29 0,163.94 z m 41.74,-8.95 v 0 c -0.02,-48.69 -0.02,-97.37 -0.02,-146.06 15.93,0.55 32.83,-2.25 47.71,4.93 19.48,8.89 31.55,28.85 36.13,49.13 5.36,21.19 1.05,44.19 -9.92,62.87 -8.78,14.97 -24.03,26.56 -41.54,28.6 -10.75,1.1 -21.59,0.32 -32.36,0.53" /><path
         id="path24"
         style="fill:#231e1f;fill-opacity:1;fill-rule:nonzero;stroke:none"
         d="m 2823.7,3800.29 c 21.7,20.45 53.08,25.83 81.85,26.3 29,-0.36 60.67,-5.69 82.59,-26.28 -0.09,-45.97 -0.02,-91.96 -0.04,-137.95 -14.93,0.02 -29.86,0.02 -44.79,0 0.03,45.54 -0.06,91.09 0.05,136.63 1.07,6.79 -6.77,9.27 -11.54,11.7 -20.48,7.29 -43.83,4.66 -63.33,-4.41 0.02,-18.11 0,-36.23 0,-54.35 14,-0.04 28.02,0.12 42.03,-0.09 -1.39,-4.88 -3.93,-9.91 -9.04,-11.7 -10.47,-4.07 -22,-2.46 -32.97,-2.82 -0.02,-24.99 -0.02,-49.98 0,-74.96 -14.93,0.02 -29.87,0.02 -44.8,0 -0.01,45.97 0.02,91.96 -0.01,137.93" /><path
         id="path26"
         style="fill:#231e1f;fill-opacity:1;fill-rule:nonzero;stroke:none"
         d="m 3137.67,3820.05 c 21.04,5.41 42.88,6.32 64.51,6.44 31.33,0.03 62.64,-0.01 93.96,0.03 -0.01,-11.13 -0.01,-22.26 0,-33.39 -14.93,0 -29.86,0 -44.79,0 0,8.86 -0.02,17.74 0,26.6 -22.94,0.02 -45.89,0 -68.81,0.02 0,-49.59 -0.03,-99.15 0,-148.71 22.92,0.01 45.86,0 68.81,0.01 0,24.38 0,48.78 0,73.16 -16.08,0.08 -32.15,-0.16 -48.21,0.13 7.13,7.25 17.65,9.59 27.51,9.46 21.82,-0.05 43.67,-0.01 65.49,-0.01 -0.01,-27.58 0,-55.14 -0.01,-82.72 -29.49,-7.18 -60.03,-9.18 -90.31,-8.48 -22.91,0.66 -45.86,3 -68.15,8.5 0.01,49.65 0.01,99.3 0,148.96" /><path
         id="path28"
         style="fill:#231e1f;fill-opacity:1;fill-rule:nonzero;stroke:none"
         d="m 3513.65,3824.39 c 27.32,5.12 56.51,1.52 81.28,-11.36 18.63,-9.68 34.87,-25.31 42.3,-45.24 6.37,-16.63 5.48,-35.78 -2.19,-51.83 -9,-19.26 -26.07,-33.8 -45.16,-42.55 -31.69,-14.43 -69.46,-14.82 -101.5,-1.21 -21.7,9.21 -41.21,25.9 -49.84,48.28 -7.53,18.89 -5.39,41.04 5.02,58.42 14.7,25.02 42.14,40.24 70.09,45.49 z m 12.55,-9 v 0 c -14.71,-3.95 -26.64,-15.01 -34.04,-28.05 -11.91,-20.98 -13.98,-46.98 -6.89,-69.92 5.03,-16.04 15.12,-31.15 30.06,-39.45 11.27,-6.43 25.36,-7.81 37.59,-3.29 13.6,4.84 24.35,15.7 31.15,28.2 10.79,19.83 12.9,43.87 7.07,65.55 -4.46,16.29 -13.91,31.81 -28.36,41.01 -10.7,6.89 -24.25,9.36 -36.58,5.95" /><path
         id="path30"
         style="fill:#231e1f;fill-opacity:1;fill-rule:nonzero;stroke:none"
         d="m 3798.5,3816.44 c 31.53,10.97 65.75,11.89 98.67,8.36 21.88,-2.8 44.29,-7.75 62.83,-20.29 -0.07,-47.37 -0.02,-94.72 -0.04,-142.08 -14.94,0 -29.89,0.02 -44.84,0 -0.04,44.86 0.07,89.75 -0.06,134.61 -1.57,8.32 -10.66,12.44 -18.11,14.35 -17.63,3.73 -35.79,1.69 -53.65,2.23 0,-50.39 0,-100.75 0,-151.12 -14.93,0 -29.86,0 -44.78,0 -0.02,51.31 0.02,102.63 -0.02,153.94" /></g></g></svg>